<svg xmlns="http://www.w3.org/2000/svg" viewBox="0 0 184 92.94"><defs><style>.cls-1{fill:#fff;}.cls-2,.cls-3{fill:#050505;}.cls-3,.cls-4{fill-rule:evenodd;}.cls-4{fill:#d32323;}</style></defs><title>Asset 1</title><g id="Layer_2" data-name="Layer 2"><g id="logos"><path class="cls-1" d="M176.8,49.36l-.32-.11a10,10,0,0,0,6.71-13.63A32.76,32.76,0,0,0,174.74,24a10,10,0,0,0-6.57-2.49,9.82,9.82,0,0,0-8.45,4.67V10a9.93,9.93,0,0,0-9.94-10,46,46,0,0,0-9.65,1.56,49.35,49.35,0,0,0-8.44,3.11,10,10,0,0,0-4.33,14l8.11,14.05a10,10,0,0,0-14.1,5.62q-.15.45-.29.9a17.86,17.86,0,0,0-4.77-3.27A19.7,19.7,0,0,0,107.9,34a18.93,18.93,0,0,0-6.4,1.1,10.71,10.71,0,0,0-11.71,1.15v-2a10.71,10.71,0,1,0-21.41,0v5.91a19.66,19.66,0,0,0-14.27-6,20.18,20.18,0,0,0-12.55,4.53,10.81,10.81,0,0,0-19.1,3.11L22,43.39l-1.47-3a10.8,10.8,0,0,0-14.46-5,10.81,10.81,0,0,0-5,14.46l10.25,21A10.3,10.3,0,0,0,5.11,77.8a10.41,10.41,0,0,0,1.58,9.09c1.5,2,4.46,4.49,10,4.63h.6c7.8,0,13.51-3.86,15.66-10.58.89-2.77,1.91-6,3-9.39.19.43.39.85.61,1.26,3.38,6.4,9.55,9.93,17.37,9.93,7.38,0,12.55-2.49,15.75-5.73A10.69,10.69,0,0,0,85.8,80.27v2a10.71,10.71,0,0,0,21.41.28c.05,0,8.42.47,13.93-5.4a18,18,0,0,0,2.61-3.39,9.19,9.19,0,0,0,8.07.38A9.94,9.94,0,0,0,134,76.16a33.42,33.42,0,0,0,13.3,5.38,10,10,0,0,0,11.6-9.47v-.34l.18.29a10,10,0,0,0,14.78,2.4,33.42,33.42,0,0,0,8.82-11.31,10,10,0,0,0-5.91-13.75Z"/><path class="cls-2" d="M128.17,63.93A2.1,2.1,0,1,1,126,66,2.1,2.1,0,0,1,128.17,63.93Zm0,3.9A1.8,1.8,0,1,0,126.39,66,1.77,1.77,0,0,0,128.17,67.83Zm-.79-3h.89c.58,0,.86.21.86.7a.63.63,0,0,1-.64.66l.7,1.08h-.37l-.67-1h-.44v1h-.34Zm.34,1.09h.42c.34,0,.66,0,.66-.4s-.29-.38-.55-.38h-.52Z"/><path class="cls-3" d="M82.87,71.94a3.78,3.78,0,1,1-7.56,0V34.33a3.78,3.78,0,0,1,7.56,0Z"/><path class="cls-2" d="M50.14,61.42H64a4.05,4.05,0,0,0,3.68-4.21h0c0-.07,0-.13,0-.19C67,43.2,58.13,41.2,54.11,41.2c-4.18,0-13.65,2.47-13.65,17.81.07,5.77,1.31,16.8,13.44,16.8,10.48,0,12.83-6.05,12.83-7.6,0-2.28-1.9-4.21-4-3.48-1.74.59-4.12,4.05-8,4.05-5.5,0-6.21-5-6.21-6.1C48.52,61.81,49,61.46,50.14,61.42ZM48.5,54.66c.25-5.22,4.21-6.08,6-6.08s5.76.87,6,6.17c0,.28-.15.45-.32.45H48.83C48.65,55.2,48.48,55,48.5,54.66Z"/><path class="cls-2" d="M19.14,71,7.33,46.82a3.88,3.88,0,1,1,7-3.41l9.14,18.73L29.07,44a3.88,3.88,0,1,1,7.42,2.3S30.17,66.95,26.37,78.83c-1.26,3.93-4.55,5.88-9.49,5.76s-5.64-3-5.1-4.9a3.79,3.79,0,0,1,4-2.71C20.23,77,20.8,74.33,19.14,71Z"/><path class="cls-2" d="M120.21,56.92c0-5-.61-11.76-6.87-14.73a12.31,12.31,0,0,0-11.23.29,20,20,0,0,0-1.92,1.26,3.78,3.78,0,0,0-7.45.89V82.23a3.78,3.78,0,0,0,7.56,0V72.36a9.55,9.55,0,0,0,6.58,3.22C121.22,76,120.28,60.34,120.21,56.92Zm-7.49,2.87c0,3,0,8.35-5.43,8.35s-5.43-5.36-5.43-8.35V57.06c0-3,0-8.35,5.43-8.35s5.43,5.36,5.43,8.35Z"/><path class="cls-4" d="M132.12,38.76l13.2,6.44a3,3,0,0,1-.59,5.66L130.47,54.4a3,3,0,0,1-3.74-2.6,26,26,0,0,1,1.19-11.29A3,3,0,0,1,132.12,38.76Z"/><path class="cls-4" d="M137.4,65.93,147.23,55a3,3,0,0,1,5.27,2.13L152,71.83a3,3,0,0,1-3.53,2.88,26.29,26.29,0,0,1-10.52-4.26A3,3,0,0,1,137.4,65.93Z"/><path class="cls-4" d="M160.69,51.41l14,4.54a3,3,0,0,1,1.8,4.18,26.29,26.29,0,0,1-7,8.95,3,3,0,0,1-4.5-.73l-7.78-12.46A3,3,0,0,1,160.69,51.41Z"/><path class="cls-4" d="M174.89,42.5l-14.11,4a3,3,0,0,1-3.34-4.6l8.21-12.17a3,3,0,0,1,4.51-.58,26,26,0,0,1,6.68,9.19A3,3,0,0,1,174.89,42.5Z"/><path class="cls-4" d="M141.91,8.25a42.25,42.25,0,0,0-7.26,2.67,3,3,0,0,0-1.31,4.24l13.8,23.9a3,3,0,0,0,5.65-1.51V10a3,3,0,0,0-3.26-3A42.25,42.25,0,0,0,141.91,8.25Z"/></g></g></svg>