<svg xmlns="http://www.w3.org/2000/svg" viewBox="0 0 184 92.94"><defs><style>.cls-1{fill:none;}.cls-2{fill:#fff;}</style></defs><title>Asset 2</title><g id="Layer_2" data-name="Layer 2"><g id="logos"><path class="cls-1" d="M129.13,65.53c0-.49-.28-.7-.86-.7h-.89v2.44h.34v-1h.44l.67,1h.37l-.7-1.08A.63.63,0,0,0,129.13,65.53Zm-1,.38h-.42v-.78h.52c.26,0,.55,0,.55.38S128.48,65.91,128.14,65.91Z"/><path class="cls-1" d="M33.93,41.41A3.88,3.88,0,0,0,29.07,44L23.45,62.15,14.3,43.42a3.88,3.88,0,1,0-7,3.41L10,52.3,19.14,71c1.66,3.31,1.1,6-3.31,6a3.79,3.79,0,0,0-4,2.71c-.54,1.9.22,4.78,5.1,4.9s8.23-1.83,9.49-5.76c3.8-11.88,10.12-32.56,10.12-32.56A3.88,3.88,0,0,0,33.93,41.41Z"/><path class="cls-1" d="M54.11,41.2c-4.18,0-13.65,2.47-13.65,17.81.07,5.77,1.31,16.8,13.44,16.8,10.48,0,12.83-6.05,12.83-7.6,0-2.28-1.9-4.21-4-3.48-1.74.59-4.12,4.05-8,4.05-5.5,0-6.21-5-6.21-6.1,0-.88.46-1.23,1.62-1.27H64a4.05,4.05,0,0,0,3.68-4.21h0c0-.07,0-.13,0-.19C67,43.2,58.13,41.2,54.11,41.2Zm6,14H48.83c-.18,0-.35-.18-.33-.53.25-5.22,4.21-6.08,6-6.08s5.76.87,6,6.17C60.46,55,60.31,55.2,60.14,55.2Z"/><path class="cls-1" d="M113.33,42.18a12.31,12.31,0,0,0-11.23.29,20,20,0,0,0-1.92,1.26,3.78,3.78,0,0,0-7.45.89V82.23a3.78,3.78,0,1,0,7.56,0V72.36a9.55,9.55,0,0,0,6.58,3.22c14.36.37,13.41-15.24,13.34-18.66C120.21,52,119.6,45.16,113.33,42.18Zm-.61,17.6c0,3,0,8.35-5.43,8.35s-5.43-5.36-5.43-8.35V57.06c0-3,0-8.35,5.43-8.35s5.43,5.36,5.43,8.35Z"/><path class="cls-1" d="M128.17,63.93A2.1,2.1,0,1,0,130.29,66,2.1,2.1,0,0,0,128.17,63.93Zm0,3.9A1.8,1.8,0,1,1,129.95,66,1.77,1.77,0,0,1,128.17,67.83Z"/><path class="cls-1" d="M79.09,30.55a3.78,3.78,0,0,0-3.78,3.78V71.94a3.78,3.78,0,1,0,7.56,0V34.33A3.78,3.78,0,0,0,79.09,30.55Z"/><path class="cls-1" d="M147.23,55,137.4,65.93a3,3,0,0,0,.53,4.52,26.29,26.29,0,0,0,10.52,4.26A3,3,0,0,0,152,71.83l.51-14.68A3,3,0,0,0,147.23,55Z"/><path class="cls-1" d="M145.32,45.2l-13.2-6.44a3,3,0,0,0-4.19,1.75,26,26,0,0,0-1.19,11.29,3,3,0,0,0,3.74,2.6l14.25-3.55A3,3,0,0,0,145.32,45.2Z"/><path class="cls-1" d="M160.78,46.55l14.11-4a3,3,0,0,0,1.94-4.12,26,26,0,0,0-6.68-9.19,3,3,0,0,0-4.51.58l-8.21,12.17A3,3,0,0,0,160.78,46.55Z"/><path class="cls-1" d="M174.66,55.95l-14-4.54a3,3,0,0,0-3.5,4.48L165,68.35a3,3,0,0,0,4.5.73,26.29,26.29,0,0,0,7-8.95A3,3,0,0,0,174.66,55.95Z"/><path class="cls-1" d="M149.53,6.94a42.47,42.47,0,0,0-14.88,4,3,3,0,0,0-1.31,4.24l13.8,23.9a3,3,0,0,0,5.65-1.51V10A3,3,0,0,0,149.53,6.94Z"/><path class="cls-2" d="M128.17,64.24A1.8,1.8,0,1,0,129.95,66,1.77,1.77,0,0,0,128.17,64.24Zm.66,3-.67-1h-.44v1h-.34V64.83h.89c.58,0,.86.21.86.7a.63.63,0,0,1-.64.66l.7,1.08Z"/><path class="cls-2" d="M107.29,48.71c-5.43,0-5.43,5.36-5.43,8.35v2.73c0,3,0,8.35,5.43,8.35s5.43-5.36,5.43-8.35V57.06C112.72,54.07,112.73,48.71,107.29,48.71Z"/><path class="cls-2" d="M54.49,48.58c-1.78,0-5.73.86-6,6.08,0,.35.15.53.33.53H60.14c.17,0,.32-.17.32-.45C60.24,49.45,56.27,48.58,54.49,48.58Z"/><path class="cls-2" d="M128.8,65.51c0-.34-.29-.38-.55-.38h-.52v.78h.42C128.48,65.91,128.8,65.9,128.8,65.51Z"/><path class="cls-2" d="M176.8,49.36l-.32-.11a10,10,0,0,0,6.71-13.63A32.76,32.76,0,0,0,174.74,24a10,10,0,0,0-6.57-2.49,9.82,9.82,0,0,0-8.45,4.67V10a9.93,9.93,0,0,0-9.94-10,46,46,0,0,0-9.65,1.56,49.35,49.35,0,0,0-8.44,3.11,10,10,0,0,0-4.33,14l8.11,14.05a10,10,0,0,0-14.1,5.62q-.15.45-.29.9a17.86,17.86,0,0,0-4.77-3.27A19.7,19.7,0,0,0,107.9,34a18.93,18.93,0,0,0-6.4,1.1,10.71,10.71,0,0,0-11.71,1.15v-2a10.71,10.71,0,1,0-21.41,0v5.91a19.66,19.66,0,0,0-14.27-6,20.18,20.18,0,0,0-12.55,4.53,10.81,10.81,0,0,0-19.1,3.11L22,43.39l-1.47-3a10.89,10.89,0,0,0-10.53-6,11,11,0,0,0-3.93,1.07,10.81,10.81,0,0,0-5,14.46L10,68.1l1.35,2.76a10.62,10.62,0,0,0-1.35.65A10.63,10.63,0,0,0,6.69,86.89,10.61,10.61,0,0,0,10,89.81a14,14,0,0,0,6.71,1.7h.6c7.8,0,13.51-3.86,15.66-10.58.89-2.77,1.91-6,3-9.39.19.43.39.85.61,1.26,3.38,6.4,9.55,9.93,17.37,9.93,7.38,0,12.55-2.49,15.75-5.73A10.69,10.69,0,0,0,85.8,80.27v2a10.71,10.71,0,0,0,21.41.28c.05,0,8.42.47,13.93-5.4a18,18,0,0,0,2.61-3.39,9.19,9.19,0,0,0,8.07.38A9.94,9.94,0,0,0,134,76.16a33.42,33.42,0,0,0,13.3,5.38,10,10,0,0,0,1.65.14,9.92,9.92,0,0,0,9.95-9.61v-.34l.18.29a10,10,0,0,0,14.78,2.4,33.42,33.42,0,0,0,8.82-11.31,10,10,0,0,0-5.91-13.75ZM36.49,46.27S30.17,66.95,26.37,78.83c-1.26,3.93-4.55,5.88-9.49,5.76s-5.64-3-5.1-4.9a3.79,3.79,0,0,1,4-2.71c4.41,0,5-2.65,3.31-6L10,52.3,7.33,46.82a3.88,3.88,0,0,1,7-3.41l9.14,18.73L29.07,44a3.88,3.88,0,1,1,7.42,2.3ZM67.68,57.21A4.05,4.05,0,0,1,64,61.42H50.14c-1.16,0-1.62.39-1.62,1.27,0,1.07.71,6.1,6.21,6.1,3.84,0,6.23-3.46,8-4.05,2.14-.73,4,1.21,4,3.48,0,1.54-2.35,7.6-12.83,7.6-12.14,0-13.37-11-13.44-16.8,0-15.35,9.47-17.81,13.65-17.81,4,0,12.88,2,13.56,15.8,0,.06,0,.13,0,.19ZM82.87,71.94a3.78,3.78,0,1,1-7.56,0V34.33a3.78,3.78,0,1,1,7.56,0Zm24,3.64a9.55,9.55,0,0,1-6.58-3.22v9.87a3.78,3.78,0,1,1-7.56,0V44.62a3.78,3.78,0,0,1,7.45-.89,20,20,0,0,1,1.92-1.26,12.31,12.31,0,0,1,11.23-.29c6.26,3,6.87,9.77,6.87,14.73C120.28,60.34,121.22,76,106.87,75.58Zm21.3-7.44A2.1,2.1,0,1,1,130.29,66,2.1,2.1,0,0,1,128.17,68.14Zm2.31-13.73a3,3,0,0,1-3.74-2.6,26,26,0,0,1,1.19-11.29,3,3,0,0,1,4.19-1.75l13.2,6.44a3,3,0,0,1-.59,5.66ZM152,71.83a3,3,0,0,1-3.53,2.88,26.29,26.29,0,0,1-10.52-4.26,3,3,0,0,1-.53-4.52L147.23,55a3,3,0,0,1,5.27,2.13Zm-4.84-32.77-13.8-23.9a3,3,0,0,1,1.31-4.24,42.47,42.47,0,0,1,14.88-4,3,3,0,0,1,3.26,3V37.55A3,3,0,0,1,147.14,39.06Zm10.29,2.89,8.21-12.17a3,3,0,0,1,4.51-.58,26,26,0,0,1,6.68,9.19,3,3,0,0,1-1.94,4.12l-14.11,4A3,3,0,0,1,157.44,41.95Zm19,18.18a26.29,26.29,0,0,1-7,8.95,3,3,0,0,1-4.5-.73l-7.78-12.46a3,3,0,0,1,3.5-4.48l14,4.54A3,3,0,0,1,176.46,60.13Z"/></g></g></svg>